<svg xmlns="http://www.w3.org/2000/svg" width="995" height="260" viewBox="0 0 995 260"><rect width="100%" height="100%" fill="#fafafa" /><text x="80" y="40" fill="#555555" font-family="calibri" font-size="17" text-anchor="end" dominant-baseline="middle">q[0]</text><text x="80" y="100" fill="#555555" font-family="calibri" font-size="17" text-anchor="end" dominant-baseline="middle">q[1]</text><text x="80" y="160" fill="#555555" font-family="calibri" font-size="17" text-anchor="end" dominant-baseline="middle">q[2]</text><text x="80" y="220" fill="#555555" font-family="calibri" font-size="17" text-anchor="end" dominant-baseline="middle">c</text><line x1="90" y1="40" x2="955" y2="40" stroke="#777777" stroke-width="3"  /><line x1="90" y1="100" x2="955" y2="100" stroke="#777777" stroke-width="3"  /><line x1="90" y1="160" x2="955" y2="160" stroke="#777777" stroke-width="3"  /><line x1="90" y1="220" x2="955" y2="220" stroke="#777777" stroke-width="3"  /><line x1="230" y1="20" x2="230" y2="180" stroke="#999999" stroke-width="3" stroke-dasharray="4,4" /><path d="M 290 40 L 288.23664424312256 41.2 L 287.14683045111457 42.4 L 287.1468304511145 43.6 L 288.23664424312256 44.8 L 290 46 L 291.76335575687744 47.2 L 292.85316954888543 48.4 L 292.8531695488855 49.6 L 291.76335575687744 50.8 L 290 52 L 288.23664424312256 53.2 L 287.14683045111457 54.4 L 287.14683045111457 55.6 L 288.23664424312256 56.8 L 290 58 L 291.76335575687744 59.2 L 292.8531695488855 60.400000000000006 L 292.8531695488855 61.599999999999994 L 291.7633557568774 62.8 L 290 64 L 288.2366442431226 65.2 L 287.14683045111457 66.4 L 287.14683045111457 67.6 L 288.23664424312256 68.8 L 290 70 L 291.76335575687744 71.2 L 292.8531695488855 72.4 L 292.8531695488855 73.6 L 291.76335575687744 74.8 L 290 76 L 288.23664424312256 77.2 L 287.14683045111457 78.4 L 287.1468304511145 79.6 L 288.2366442431226 80.80000000000001 L 290 82 L 291.76335575687744 83.19999999999999 L 292.85316954888543 84.4 L 292.85316954888543 85.6 L 291.76335575687744 86.80000000000001 L 290 88 L 288.23664424312256 89.19999999999999 L 287.14683045111457 90.4 L 287.1468304511145 91.6 L 288.23664424312256 92.8 L 290 94 L 291.76335575687744 95.2 L 292.85316954888543 96.4 L 292.8531695488855 97.6 L 291.76335575687744 98.8 L 290 100" stroke="#555555" stroke-width="2" fill="none"  /><path d="M 350 40 L 348.23664424312256 41.2 L 347.14683045111457 42.4 L 347.1468304511145 43.6 L 348.23664424312256 44.8 L 350 46 L 351.76335575687744 47.2 L 352.85316954888543 48.4 L 352.8531695488855 49.6 L 351.76335575687744 50.8 L 350 52 L 348.23664424312256 53.2 L 347.14683045111457 54.4 L 347.14683045111457 55.6 L 348.23664424312256 56.8 L 350 58 L 351.76335575687744 59.2 L 352.8531695488855 60.400000000000006 L 352.8531695488855 61.599999999999994 L 351.7633557568774 62.8 L 350 64 L 348.2366442431226 65.2 L 347.14683045111457 66.4 L 347.14683045111457 67.6 L 348.23664424312256 68.8 L 350 70 L 351.76335575687744 71.2 L 352.8531695488855 72.4 L 352.8531695488855 73.6 L 351.76335575687744 74.8 L 350 76 L 348.23664424312256 77.2 L 347.14683045111457 78.4 L 347.1468304511145 79.6 L 348.2366442431226 80.80000000000001 L 350 82 L 351.76335575687744 83.19999999999999 L 352.85316954888543 84.4 L 352.85316954888543 85.6 L 351.76335575687744 86.80000000000001 L 350 88 L 348.23664424312256 89.19999999999999 L 347.14683045111457 90.4 L 347.1468304511145 91.6 L 348.23664424312256 92.8 L 350 94 L 351.76335575687744 95.2 L 352.85316954888543 96.4 L 352.8531695488855 97.6 L 351.76335575687744 98.8 L 350 100 L 348.23664424312256 101.2 L 347.1468304511145 102.4 L 347.1468304511145 103.6 L 348.2366442431226 104.80000000000001 L 350 106 L 351.7633557568774 107.2 L 352.85316954888543 108.39999999999999 L 352.8531695488855 109.6 L 351.76335575687744 110.8 L 350 112 L 348.23664424312256 113.2 L 347.14683045111457 114.4 L 347.1468304511145 115.6 L 348.23664424312256 116.8 L 350 118 L 351.7633557568774 119.2 L 352.8531695488855 120.4 L 352.85316954888543 121.60000000000001 L 351.76335575687744 122.8 L 350 124 L 348.2366442431226 125.19999999999999 L 347.14683045111457 126.39999999999999 L 347.1468304511145 127.6 L 348.23664424312256 128.8 L 350 130 L 351.76335575687744 131.2 L 352.85316954888543 132.4 L 352.8531695488855 133.60000000000002 L 351.7633557568774 134.8 L 350 136 L 348.23664424312256 137.2 L 347.14683045111457 138.39999999999998 L 347.14683045111457 139.6 L 348.23664424312256 140.8 L 350 142 L 351.7633557568774 143.2 L 352.8531695488855 144.4 L 352.8531695488855 145.6 L 351.76335575687744 146.8 L 350 148 L 348.23664424312256 149.2 L 347.1468304511145 150.4 L 347.14683045111457 151.60000000000002 L 348.23664424312256 152.8 L 350 154 L 351.7633557568774 155.2 L 352.85316954888543 156.39999999999998 L 352.8531695488855 157.6 L 351.76335575687744 158.8 L 350.00000000000006 160" stroke="#555555" stroke-width="2" fill="none"  /><path d="M 410 100 L 408.23664424312256 101.2 L 407.14683045111457 102.4 L 407.1468304511145 103.6 L 408.23664424312256 104.8 L 410 106 L 411.76335575687744 107.2 L 412.85316954888543 108.4 L 412.8531695488855 109.6 L 411.76335575687744 110.8 L 410 112 L 408.23664424312256 113.2 L 407.14683045111457 114.4 L 407.14683045111457 115.6 L 408.23664424312256 116.8 L 410 118 L 411.76335575687744 119.2 L 412.8531695488855 120.4 L 412.8531695488855 121.6 L 411.7633557568774 122.8 L 410 124 L 408.2366442431226 125.2 L 407.14683045111457 126.4 L 407.14683045111457 127.6 L 408.23664424312256 128.8 L 410 130 L 411.76335575687744 131.2 L 412.8531695488855 132.4 L 412.8531695488855 133.6 L 411.76335575687744 134.8 L 410 136 L 408.23664424312256 137.2 L 407.14683045111457 138.4 L 407.1468304511145 139.6 L 408.2366442431226 140.8 L 410 142 L 411.76335575687744 143.2 L 412.85316954888543 144.4 L 412.85316954888543 145.6 L 411.76335575687744 146.8 L 410 148 L 408.23664424312256 149.2 L 407.14683045111457 150.4 L 407.1468304511145 151.6 L 408.23664424312256 152.8 L 410 154 L 411.76335575687744 155.2 L 412.85316954888543 156.4 L 412.8531695488855 157.6 L 411.76335575687744 158.8 L 410 160" stroke="#555555" stroke-width="2" fill="none"  /><path d="M 470 40 L 468.23664424312256 41.2 L 467.14683045111457 42.4 L 467.1468304511145 43.6 L 468.23664424312256 44.8 L 470 46 L 471.76335575687744 47.2 L 472.85316954888543 48.4 L 472.8531695488855 49.6 L 471.76335575687744 50.8 L 470 52 L 468.23664424312256 53.2 L 467.14683045111457 54.4 L 467.14683045111457 55.6 L 468.23664424312256 56.8 L 470 58 L 471.76335575687744 59.2 L 472.8531695488855 60.400000000000006 L 472.8531695488855 61.599999999999994 L 471.7633557568774 62.8 L 470 64 L 468.2366442431226 65.2 L 467.14683045111457 66.4 L 467.14683045111457 67.6 L 468.23664424312256 68.8 L 470 70 L 471.76335575687744 71.2 L 472.8531695488855 72.4 L 472.8531695488855 73.6 L 471.76335575687744 74.8 L 470 76 L 468.23664424312256 77.2 L 467.14683045111457 78.4 L 467.1468304511145 79.6 L 468.2366442431226 80.80000000000001 L 470 82 L 471.76335575687744 83.19999999999999 L 472.85316954888543 84.4 L 472.85316954888543 85.6 L 471.76335575687744 86.80000000000001 L 470 88 L 468.23664424312256 89.19999999999999 L 467.14683045111457 90.4 L 467.1468304511145 91.6 L 468.23664424312256 92.8 L 470 94 L 471.76335575687744 95.2 L 472.85316954888543 96.4 L 472.8531695488855 97.6 L 471.76335575687744 98.8 L 470 100 L 468.23664424312256 101.2 L 467.1468304511145 102.4 L 467.1468304511145 103.6 L 468.2366442431226 104.80000000000001 L 470 106 L 471.7633557568774 107.2 L 472.85316954888543 108.39999999999999 L 472.8531695488855 109.6 L 471.76335575687744 110.8 L 470 112 L 468.23664424312256 113.2 L 467.14683045111457 114.4 L 467.1468304511145 115.6 L 468.23664424312256 116.8 L 470 118 L 471.7633557568774 119.2 L 472.8531695488855 120.4 L 472.85316954888543 121.60000000000001 L 471.76335575687744 122.8 L 470 124 L 468.2366442431226 125.19999999999999 L 467.14683045111457 126.39999999999999 L 467.1468304511145 127.6 L 468.23664424312256 128.8 L 470 130 L 471.76335575687744 131.2 L 472.85316954888543 132.4 L 472.8531695488855 133.60000000000002 L 471.7633557568774 134.8 L 470 136 L 468.23664424312256 137.2 L 467.14683045111457 138.39999999999998 L 467.14683045111457 139.6 L 468.23664424312256 140.8 L 470 142 L 471.7633557568774 143.2 L 472.8531695488855 144.4 L 472.8531695488855 145.6 L 471.76335575687744 146.8 L 470 148 L 468.23664424312256 149.2 L 467.1468304511145 150.4 L 467.14683045111457 151.60000000000002 L 468.23664424312256 152.8 L 470 154 L 471.7633557568774 155.2 L 472.85316954888543 156.39999999999998 L 472.8531695488855 157.6 L 471.76335575687744 158.8 L 470.00000000000006 160" stroke="#555555" stroke-width="2" fill="none"  /><path d="M 530 40 L 528.2366442431226 41.2 L 527.1468304511145 42.4 L 527.1468304511145 43.6 L 528.2366442431226 44.8 L 530 46 L 531.7633557568774 47.2 L 532.8531695488855 48.4 L 532.8531695488855 49.6 L 531.7633557568774 50.8 L 530 52 L 528.2366442431226 53.2 L 527.1468304511145 54.4 L 527.1468304511145 55.6 L 528.2366442431226 56.8 L 530 58 L 531.7633557568774 59.2 L 532.8531695488855 60.400000000000006 L 532.8531695488855 61.599999999999994 L 531.7633557568774 62.8 L 530 64 L 528.2366442431226 65.2 L 527.1468304511145 66.4 L 527.1468304511145 67.6 L 528.2366442431226 68.8 L 530 70 L 531.7633557568774 71.2 L 532.8531695488855 72.4 L 532.8531695488855 73.6 L 531.7633557568774 74.8 L 530 76 L 528.2366442431226 77.2 L 527.1468304511145 78.4 L 527.1468304511145 79.6 L 528.2366442431226 80.80000000000001 L 530 82 L 531.7633557568774 83.19999999999999 L 532.8531695488855 84.4 L 532.8531695488855 85.6 L 531.7633557568774 86.80000000000001 L 530 88 L 528.2366442431226 89.19999999999999 L 527.1468304511145 90.4 L 527.1468304511145 91.6 L 528.2366442431226 92.8 L 530 94 L 531.7633557568774 95.2 L 532.8531695488855 96.4 L 532.8531695488855 97.6 L 531.7633557568774 98.8 L 530 100 L 528.2366442431226 101.2 L 527.1468304511145 102.4 L 527.1468304511145 103.6 L 528.2366442431226 104.80000000000001 L 530 106 L 531.7633557568774 107.2 L 532.8531695488855 108.39999999999999 L 532.8531695488855 109.6 L 531.7633557568774 110.8 L 530 112 L 528.2366442431226 113.2 L 527.1468304511145 114.4 L 527.1468304511145 115.6 L 528.2366442431226 116.8 L 530 118 L 531.7633557568774 119.2 L 532.8531695488855 120.4 L 532.8531695488855 121.60000000000001 L 531.7633557568774 122.8 L 530 124 L 528.2366442431226 125.19999999999999 L 527.1468304511145 126.39999999999999 L 527.1468304511145 127.6 L 528.2366442431226 128.8 L 530 130 L 531.7633557568774 131.2 L 532.8531695488855 132.4 L 532.8531695488855 133.60000000000002 L 531.7633557568774 134.8 L 530 136 L 528.2366442431226 137.2 L 527.1468304511145 138.39999999999998 L 527.1468304511145 139.6 L 528.2366442431226 140.8 L 530 142 L 531.7633557568774 143.2 L 532.8531695488855 144.4 L 532.8531695488855 145.6 L 531.7633557568774 146.8 L 530 148 L 528.2366442431226 149.2 L 527.1468304511145 150.4 L 527.1468304511145 151.60000000000002 L 528.2366442431226 152.8 L 530 154 L 531.7633557568774 155.2 L 532.8531695488855 156.39999999999998 L 532.8531695488855 157.6 L 531.7633557568774 158.8 L 530 160" stroke="#555555" stroke-width="2" fill="none"  /><line x1="590" y1="20" x2="590" y2="180" stroke="#999999" stroke-width="3" stroke-dasharray="4,4" /><line x1="710" y1="20" x2="710" y2="180" stroke="#999999" stroke-width="3" stroke-dasharray="4,4" /><line x1="770" y1="40" x2="770" y2="220" stroke="#777777" stroke-width="2" stroke-dasharray="2,2" /><line x1="830" y1="100" x2="830" y2="220" stroke="#777777" stroke-width="2" stroke-dasharray="2,2" /><line x1="890" y1="160" x2="890" y2="220" stroke="#777777" stroke-width="2" stroke-dasharray="2,2" /><circle cx="110" cy="40" r="20" fill="#e8b5ca" stroke="#777777" stroke-width="2" /><text x="110" y="40" fill="#555555" font-family="sans-serif" font-size="12" text-anchor="middle" dominant-baseline="middle">H</text><circle cx="110" cy="100" r="20" fill="#ffe0e0" stroke="#777777" stroke-width="2" /><text x="110" y="100" fill="#555555" font-family="sans-serif" font-size="12" text-anchor="middle" dominant-baseline="middle">X</text><circle cx="110" cy="160" r="20" fill="#e0ffe0" stroke="#777777" stroke-width="2" /><text x="110" y="160" fill="#555555" font-family="sans-serif" font-size="12" text-anchor="middle" dominant-baseline="middle">Y</text><circle cx="170" cy="40" r="20" fill="#ccccff" stroke="#777777" stroke-width="2" /><text x="170" y="40" fill="#555555" font-family="sans-serif" font-size="12" text-anchor="middle" dominant-baseline="middle">Z</text><circle cx="170" cy="100" r="20" fill="#b5e8c0" stroke="#777777" stroke-width="2" /><text x="170" y="100" fill="#555555" font-family="sans-serif" font-size="12" text-anchor="middle" dominant-baseline="middle">S</text><circle cx="170" cy="160" r="20" fill="#beb5e8" stroke="#777777" stroke-width="2" /><text x="170" y="160" fill="#555555" font-family="sans-serif" font-size="12" text-anchor="middle" dominant-baseline="middle">T</text><circle cx="290" cy="160" r="20" fill="#b5e5e8" stroke="#777777" stroke-width="2" /><text x="290" y="160" fill="#555555" font-family="sans-serif" font-size="12" text-anchor="middle" dominant-baseline="middle">T†</text><circle cx="290" cy="40" r="4" fill="#555555" stroke="none" stroke-width="1" /><circle cx="290" cy="100" r="12" fill="#fafafa" stroke="#555555" stroke-width="2" /><line x1="278" y1="100" x2="302" y2="100" stroke="#555555" stroke-width="2" /><line x1="290" y1="88" x2="290" y2="112" stroke="#555555" stroke-width="2" /><circle cx="350" cy="40" r="4" fill="#555555" stroke="none" stroke-width="1" /><circle cx="350" cy="100" r="4" fill="#555555" stroke="none" stroke-width="1" /><circle cx="350" cy="160" r="12" fill="#fafafa" stroke="#555555" stroke-width="2" /><line x1="338" y1="160" x2="362" y2="160" stroke="#555555" stroke-width="2" /><line x1="350" y1="148" x2="350" y2="172" stroke="#555555" stroke-width="2" /><circle cx="410" cy="100" r="4" fill="#555555" stroke="none" stroke-width="1" /><circle cx="410" cy="160" r="20" fill="#ccccff" stroke="#777777" stroke-width="2" /><text x="410" y="160" fill="#555555" font-family="sans-serif" font-size="12" text-anchor="middle" dominant-baseline="middle">Z</text><circle cx="470" cy="160" r="4" fill="#555555" stroke="none" stroke-width="1" /><circle cx="470" cy="40" r="20" fill="#e0ffe0" stroke="#777777" stroke-width="2" /><text x="470" y="40" fill="#555555" font-family="sans-serif" font-size="12" text-anchor="middle" dominant-baseline="middle">Y</text><line x1="522" y1="32" x2="538" y2="48" stroke="#222222" stroke-width="2" /><line x1="522" y1="48" x2="538" y2="32" stroke="#222222" stroke-width="2" /><line x1="522" y1="152" x2="538" y2="168" stroke="#222222" stroke-width="2" /><line x1="522" y1="168" x2="538" y2="152" stroke="#222222" stroke-width="2" /><circle cx="650" cy="40" r="20" fill="#ffe0e0" stroke="#777777" stroke-width="2" /><path d="M 650 23 A 17 17 0 0 1 658.1502341562715 25.081096447863665" fill="none" stroke="#ff6666" stroke-width="4" stroke-linecap="round" /><text x="650" y="40" fill="#555555" font-family="sans-serif" font-size="12" text-anchor="middle" dominant-baseline="middle">Rx</text><circle cx="650" cy="100" r="20" fill="#e0ffe0" stroke="#777777" stroke-width="2" /><path d="M 650 83 A 17 17 0 0 1 654.2058673073269 83.52848883091903" fill="none" stroke="#5eba5e" stroke-width="4" stroke-linecap="round" /><text x="650" y="100" fill="#555555" font-family="sans-serif" font-size="12" text-anchor="middle" dominant-baseline="middle">Ry</text><circle cx="650" cy="160" r="20" fill="#ccccff" stroke="#777777" stroke-width="2" /><path d="M 650 143 A 17 17 0 0 1 658.1502341562715 145.08109644786367" fill="none" stroke="#5757fa" stroke-width="4" stroke-linecap="round" /><text x="650" y="160" fill="#555555" font-family="sans-serif" font-size="12" text-anchor="middle" dominant-baseline="middle">Rz</text><polygon points="770,20 790,40 770,60 750,40" fill="#AFAFAF" stroke="#777777" stroke-width="2" /><text x="770" y="40" fill="#555555" font-family="sans-serif" font-size="12" text-anchor="middle" dominant-baseline="middle">M</text><polygon points="830,80 850,100 830,120 810,100" fill="#AFAFAF" stroke="#777777" stroke-width="2" /><text x="830" y="100" fill="#555555" font-family="sans-serif" font-size="12" text-anchor="middle" dominant-baseline="middle">M</text><polygon points="890,140 910,160 890,180 870,160" fill="#AFAFAF" stroke="#777777" stroke-width="2" /><text x="890" y="160" fill="#555555" font-family="sans-serif" font-size="12" text-anchor="middle" dominant-baseline="middle">M</text></svg>