<svg xmlns="http://www.w3.org/2000/svg" width="215" height="140" viewBox="0 0 215 140"><rect width="100%" height="100%" fill="#fafafa" /><text x="80" y="40" fill="#555555" font-family="calibri" font-size="17" text-anchor="end" dominant-baseline="middle">q[0]</text><text x="80" y="100" fill="#555555" font-family="calibri" font-size="17" text-anchor="end" dominant-baseline="middle">q[1]</text><line x1="90" y1="40" x2="175" y2="40" stroke="#777777" stroke-width="3"  /><line x1="90" y1="100" x2="175" y2="100" stroke="#777777" stroke-width="3"  /><path d="M 110 40 L 108.23664424312258 41.2 L 107.14683045111454 42.4 L 107.14683045111454 43.6 L 108.23664424312258 44.8 L 110 46 L 111.76335575687742 47.2 L 112.85316954888546 48.4 L 112.85316954888546 49.6 L 111.76335575687742 50.8 L 110 52 L 108.23664424312258 53.2 L 107.14683045111454 54.4 L 107.14683045111454 55.6 L 108.23664424312258 56.8 L 110 58 L 111.76335575687742 59.2 L 112.85316954888546 60.400000000000006 L 112.85316954888546 61.599999999999994 L 111.76335575687742 62.8 L 110 64 L 108.23664424312258 65.2 L 107.14683045111454 66.4 L 107.14683045111454 67.6 L 108.23664424312257 68.8 L 109.99999999999999 70 L 111.76335575687743 71.2 L 112.85316954888546 72.4 L 112.85316954888546 73.6 L 111.76335575687742 74.8 L 110 76 L 108.23664424312258 77.2 L 107.14683045111454 78.4 L 107.14683045111454 79.6 L 108.23664424312258 80.80000000000001 L 110 82 L 111.76335575687742 83.19999999999999 L 112.85316954888546 84.4 L 112.85316954888546 85.6 L 111.76335575687742 86.80000000000001 L 110 88 L 108.23664424312258 89.19999999999999 L 107.14683045111454 90.4 L 107.14683045111454 91.6 L 108.23664424312258 92.8 L 110 94 L 111.76335575687743 95.2 L 112.85316954888546 96.4 L 112.85316954888546 97.6 L 111.76335575687742 98.8 L 110.00000000000001 100" stroke="#555555" stroke-width="2" fill="none"  /><text x="110" y="40" font-size="24" text-anchor="middle" dominant-baseline="middle">🐱</text><text x="110" y="40" fill="#555555" font-family="sans-serif" font-size="12" text-anchor="middle" dominant-baseline="middle">H</text><text x="110" y="40" font-size="24" text-anchor="middle" dominant-baseline="middle">🔸</text><text x="110" y="100" font-size="24" text-anchor="middle" dominant-baseline="middle">🙃</text></svg>